<svg width="60" height="60" viewBox="0 0 60 60" xmlns="http://www.w3.org/2000/svg">
<rect width="60" height="60" rx="8" fill="#1F93FF"/>
<path d="M30 15C21.716 15 15 21.716 15 30c0 8.284 6.716 15 15 15 1.657 0 3 1.343 3 3v2c0 1.657-1.343 3-3 3s-3-1.343-3-3v-2c-8.837 0-16-7.163-16-16S21.163 14 30 14s16 7.163 16 16c0 4.418-1.791 8.418-4.686 11.314C38.791 43.791 36 44.582 36 48v2c0 1.657-1.343 3-3 3s-3-1.343-3-3v-2c0-6.627 5.373-12 12-12 4.418 0 8-3.582 8-8s-3.582-8-8-8-8 3.582-8 8c0 1.657-1.343 3-3 3s-3-1.343-3-3c0-6.627 5.373-12 12-12z" fill="white"/>
<circle cx="30" cy="30" r="4" fill="white"/>
<path d="M25 38c0-2.761 2.239-5 5-5s5 2.239 5 5v7h-10v-7z" fill="white"/>
</svg>
